HIERARCHY
ROOT pelvis
{
  OFFSET 0 100 0
  CHANNELS 6 Xposition Yposition Zposition Zrotation Xrotation Yrotation
  JOINT pelvis_right_femur
  {
    OFFSET -10.78128 -3.44521 -0.5502486
    CHANNELS 3 Zrotation Xrotation Yrotation
    JOINT right_femur_tibia
    {
      OFFSET -0.8047443 -44.0398 -0.1307829
      CHANNELS 3 Zrotation Xrotation Yrotation
      JOINT right_tibia_foot
      {
        OFFSET 3.006224 -47.83518 -5
        CHANNELS 3 Zrotation Xrotation Yrotation
        End Site
        {
          OFFSET 0 -5 15
        }
      }
    }
  }
  JOINT pelvis_left_femur
  {
    OFFSET 10.78128 -3.44521 -0.5502486
    CHANNELS 3 Zrotation Xrotation Yrotation
    JOINT left_femur_tibia
    {
      OFFSET 0.8047443 -44.0398 -0.1307829
      CHANNELS 3 Zrotation Xrotation Yrotation
      JOINT left_tibia_foot
      {
        OFFSET -4.370144 -48.10324 -4.275266
        CHANNELS 3 Zrotation Xrotation Yrotation
        End Site
        {
          OFFSET 0 -5 15
        }
      }
    }
  }
  JOINT pelvis_spine1
  {
    OFFSET 0 6.468898 -3.129235
    CHANNELS 3 Zrotation Xrotation Yrotation
    JOINT spine1
    {
      OFFSET 0 23.15396 4.99043
      CHANNELS 3 Zrotation Xrotation Yrotation
      JOINT spine2
      {
        OFFSET 0 20.79997 -5.064912
        CHANNELS 3 Zrotation Xrotation Yrotation
        JOINT neck
        {
          OFFSET 0 14.38658 9.616178
          CHANNELS 3 Zrotation Xrotation Yrotation
          End Site
          {
            OFFSET 0 20 0
          }
        }
      }
      JOINT right_manubrium
      {
        OFFSET -5.722621 16.35077 3.967754
        CHANNELS 3 Zrotation Xrotation Yrotation
        JOINT right_clavicle
        {
          OFFSET -13.16364 1.694482 -4.693211
          CHANNELS 3 Zrotation Xrotation Yrotation
          JOINT right_humerus
          {
            OFFSET -28.5034 -0.3100689 -2.792744
            CHANNELS 3 Zrotation Xrotation Yrotation
            JOINT right_radius
            {
              OFFSET -25.15693 0.02248979 -1.271978
              CHANNELS 3 Zrotation Xrotation Yrotation
              End Site
              {
                OFFSET -15 0 0
              }
            }
          }
        }
      }
      JOINT left_manubrium
      {
        OFFSET 5.722621 16.35077 3.967754
        CHANNELS 3 Zrotation Xrotation Yrotation
        JOINT left_clavicle
        {
          OFFSET 13.16364 1.694482 -4.693211
          CHANNELS 3 Zrotation Xrotation Yrotation
          JOINT left_humerus
          {
            OFFSET 29.39168 -1.063119 -2.237045
            CHANNELS 3 Zrotation Xrotation Yrotation
            JOINT left_radius
            {
              OFFSET 24.59957 -0.9528479 0.9047498
              CHANNELS 3 Zrotation Xrotation Yrotation
              End Site
              {
                OFFSET 15 -0 -0
              }
            }
          }
        }
      }
    }
  }
}
MOTION
Frames: 9
Frame Time: 0.0416666666667
-496.9859 59.09997 2804.642 -1.868643 -4.846269 -20.54807 4.199584 4.346169 0.4695557 -0 23.50276 -0 -14.55767 -6.874953 1.240442 0.5373849 -16.12924 -5.082025 -0 31.65762 -0 8.181501 1.888987 8.436618 2.678658 -4.490916 9.31542 -0.7677117 16.16222 -5.241816 1.7341 16.84126 1.065688 -1.841623 -21.11392 5.284459 -5.116862 -35.48358 10.94872 89.60041 15.29641 -5.953835 -0 0 35.57009 -23.93679 19.71072 19.09824 2.226613 -19.93072 -5.75254 -96.31658 11.86268 43.17353 0 0 -13.57902 0.8380364 11.44994 14.04829
-497.5674 59.18897 2810.337 -1.865842 -4.847346 -20.51492 4.199584 4.346169 0.4695557 -0 23.50276 -0 -14.55767 -6.874953 1.240442 0.5373849 -16.12924 -5.082025 -0 31.65762 -0 8.181501 1.888987 8.436618 2.678658 -4.490916 9.31542 -0.7677117 16.16222 -5.241816 1.7341 16.84126 1.065688 -1.841623 -21.11392 5.284459 -5.116862 -35.48358 10.94872 89.60041 15.29641 -5.953835 -0 0 35.57009 -23.93679 19.71072 19.09824 2.226613 -19.93072 -5.75254 -96.31658 11.86268 43.17353 0 0 -13.57902 0.8380364 11.44994 14.04829
-498.1457 59.27797 2816.032 -1.86304 -4.848422 -20.48176 4.199584 4.346169 0.4695557 -0 23.50276 -0 -14.55767 -6.874953 1.240442 0.5373849 -16.12924 -5.082025 -0 31.65762 -0 8.181501 1.888987 8.436618 2.678658 -4.490916 9.31542 -0.7677117 16.16222 -5.241816 1.7341 16.84126 1.065688 -1.841623 -21.11392 5.284459 -5.116862 -35.48358 10.94872 89.60041 15.29641 -5.953835 -0 0 35.57009 -23.93679 19.71072 19.09824 2.226613 -19.93072 -5.75254 -96.31658 11.86268 43.17353 0 0 -13.57902 0.8380364 11.44994 14.04829
-498.7207 59.36697 2821.727 -1.860237 -4.849495 -20.4486 4.199584 4.346169 0.4695557 -0 23.50276 -0 -14.55767 -6.874953 1.240442 0.5373849 -16.12924 -5.082025 -0 31.65762 -0 8.181501 1.888987 8.436618 2.678658 -4.490916 9.31542 -0.7677117 16.16222 -5.241816 1.7341 16.84126 1.065688 -1.841623 -21.11392 5.284459 -5.116862 -35.48358 10.94872 89.60041 15.29641 -5.953835 -0 0 35.57009 -23.93679 19.71072 19.09824 2.226613 -19.93072 -5.75254 -96.31658 11.86268 43.17353 0 0 -13.57902 0.8380364 11.44994 14.04829
-499.2924 59.45597 2827.422 -1.857434 -4.850568 -20.41545 4.199584 4.346169 0.4695557 -0 23.50276 -0 -14.55767 -6.874953 1.240442 0.5373849 -16.12924 -5.082025 -0 31.65762 -0 8.181501 1.888987 8.436618 2.678658 -4.490916 9.31542 -0.7677117 16.16222 -5.241816 1.7341 16.84126 1.065688 -1.841623 -21.11392 5.284459 -5.116862 -35.48358 10.94872 89.60041 15.29641 -5.953835 -0 0 35.57009 -23.93679 19.71072 19.09824 2.226613 -19.93072 -5.75254 -96.31658 11.86268 43.17353 0 0 -13.57902 0.8380364 11.44994 14.04829
-499.8608 59.54497 2833.118 -1.85463 -4.851638 -20.38229 4.199584 4.346169 0.4695557 -0 23.50276 -0 -14.55767 -6.874953 1.240442 0.5373849 -16.12924 -5.082025 -0 31.65762 -0 8.181501 1.888987 8.436618 2.678658 -4.490916 9.31542 -0.7677117 16.16222 -5.241816 1.7341 16.84126 1.065688 -1.841623 -21.11392 5.284459 -5.116862 -35.48358 10.94872 89.60041 15.29641 -5.953835 -0 0 35.57009 -23.93679 19.71072 19.09824 2.226613 -19.93072 -5.75254 -96.31658 11.86268 43.17353 0 0 -13.57902 0.8380364 11.44994 14.04829
-500.426 59.63397 2838.814 -1.851826 -4.852707 -20.34914 4.199584 4.346169 0.4695557 -0 23.50276 -0 -14.55767 -6.874953 1.240442 0.5373849 -16.12924 -5.082025 -0 31.65762 -0 8.181501 1.888987 8.436618 2.678658 -4.490916 9.31542 -0.7677117 16.16222 -5.241816 1.7341 16.84126 1.065688 -1.841623 -21.11392 5.284459 -5.116862 -35.48358 10.94872 89.60041 15.29641 -5.953835 -0 0 35.57009 -23.93679 19.71072 19.09824 2.226613 -19.93072 -5.75254 -96.31658 11.86268 43.17353 0 0 -13.57902 0.8380364 11.44994 14.04829
-500.9878 59.72297 2844.51 -1.849021 -4.853774 -20.31598 4.199584 4.346169 0.4695557 -0 23.50276 -0 -14.55767 -6.874953 1.240442 0.5373849 -16.12924 -5.082025 -0 31.65762 -0 8.181501 1.888987 8.436618 2.678658 -4.490916 9.31542 -0.7677117 16.16222 -5.241816 1.7341 16.84126 1.065688 -1.841623 -21.11392 5.284459 -5.116862 -35.48358 10.94872 89.60041 15.29641 -5.953835 -0 0 35.57009 -23.93679 19.71072 19.09824 2.226613 -19.93072 -5.75254 -96.31658 11.86268 43.17353 0 0 -13.57902 0.8380364 11.44994 14.04829
-501.5464 59.81197 2850.207 -1.846215 -4.85484 -20.28283 4.199584 4.346169 0.4695557 -0 23.50276 -0 -14.55767 -6.874953 1.240442 0.5373849 -16.12924 -5.082025 -0 31.65762 -0 8.181501 1.888987 8.436618 2.678658 -4.490916 9.31542 -0.7677117 16.16222 -5.241816 1.7341 16.84126 1.065688 -1.841623 -21.11392 5.284459 -5.116862 -35.48358 10.94872 89.60041 15.29641 -5.953835 -0 0 35.57009 -23.93679 19.71072 19.09824 2.226613 -19.93072 -5.75254 -96.31658 11.86268 43.17353 0 0 -13.57902 0.8380364 11.44994 14.04829
